<?xml version="1.0" encoding="utf-8"?>
<!-- Generator: Adobe Illustrator 24.1.1, SVG Export Plug-In . SVG Version: 6.00 Build 0)  -->
<svg version="1.1" id="Layer_1" xmlns="http://www.w3.org/2000/svg" xmlns:xlink="http://www.w3.org/1999/xlink" x="0px" y="0px"
	 viewBox="0 0 64 64" style="enable-background:new 0 0 64 64;" xml:space="preserve">
<style type="text/css">
	.st0{fill:none;stroke:#BF1B1B;stroke-width:2;stroke-linecap:round;stroke-linejoin:round;stroke-miterlimit:10;}
	.st1{display:none;fill:none;stroke:#BF1B1B;stroke-width:2;stroke-linecap:round;stroke-linejoin:round;stroke-miterlimit:10;}
	.st2{fill:#BF1B1B;}
</style>
<desc>A line styled icon from Orion Icon Library.</desc>
<path class="st0" d="M9.8,2h44.4C58.5,2,62,5.5,62,9.8v44.4c0,4.3-3.5,7.8-7.8,7.8H9.8C5.5,62,2,58.5,2,54.2V9.8C2,5.5,5.5,2,9.8,2z
	"/>
<path class="st1" d="M16,32h30v-8"/>
<path class="st1" d="M24,40l-8-8l8-8"/>
<g transform="translate(0.000000,512.000000) scale(0.100000,-0.100000)">
	<path class="st2" d="M124.6,4917.5c-14.7-4.2-24.9-10.2-35.5-20.6c-11.2-11-17.1-20.6-22.1-35.3c-3.1-9.6-3.3-11.3-3.3-60.1
		c0-55.7,0.3-58.5,8.9-76.3c6.9-14.3,21.2-28.8,35.1-35.8c16.8-8.5,23.2-9.5,58.8-9.5c30.7,0,32,0.1,36.5,3.1
		c10.9,7.5,14.1,19.7,8.2,30c-6.1,10.6-8.9,11.3-45.1,12.2l-32,0.7l-6.9,4.2c-12.4,7.6-18.9,21.3-18.9,39.6v7.6l45.8,0.4
		c43.8,0.4,46.1,0.6,49.8,3.4c7.5,5.5,9.8,10,9.8,18.9s-2.3,13.4-9.8,18.9c-3.7,2.8-5.9,3-49.8,3.4l-45.8,0.4v7.6
		c0,18.2,6.5,32,18.9,39.6l6.9,4.2l32,0.7c36.2,0.8,39,1.6,45.1,12.2c5.9,10.3,2.7,22.5-8.2,30c-4.5,3-5.7,3.1-37.3,3
		C139,4920.1,131.6,4919.5,124.6,4917.5z"/>
	<path class="st2" d="M298.7,4918.7c-15.6-3.7-32.2-15.6-41.6-29.5c-23.5-34.9-12.2-82.3,24.5-102.5c11.2-6.2,18.2-7.9,36.2-9
		c12.6-0.8,16-1.6,19.9-4.4c17.1-11.6,16.1-36.2-1.8-45.2c-4.9-2.5-8.3-2.8-37.6-2.8c-17.7,0-34.5-0.7-37.5-1.4
		c-6.9-2-14.7-10.7-16-18.2c-1.3-7.5,3.5-17.8,10.5-22.3c4.7-3.1,5.8-3.3,42.6-3.3c33.8,0,38.9,0.3,46.9,2.8
		c23.6,7.2,42,26.9,48.5,51.7c8.1,31.2-8.5,66.6-37.7,80.4c-11.7,5.5-21.5,7.8-34.6,7.8c-18.8,0-30.4,9.9-30.7,26.2
		c0,8.8,4.7,18,11.9,22.3c4.7,3,6.9,3.1,41,3.8c40.7,0.8,43,1.3,49.2,12.2c5.9,10.3,2.7,22.5-8.2,30c-4.5,3.1-5.5,3.1-42.3,3
		C321.1,4919.9,301.6,4919.4,298.7,4918.7z"/>
	<path class="st2" d="M486.6,4917.5c-14.7-4.2-24.9-10.2-35.5-20.6c-11.2-11-17.1-20.6-22.1-35.3c-3.1-9.6-3.3-11.3-3.3-60.1
		c0-55.7,0.3-58.5,8.9-76.3c6.9-14.3,21.2-28.8,35.1-35.8c16.8-8.5,23.2-9.5,58.8-9.5c30.7,0,32,0.1,36.5,3.1
		c10.9,7.5,14.1,19.7,8.2,30c-6.1,10.6-8.9,11.3-45.1,12.2l-32,0.7l-6.9,4.2c-8.3,5.2-15.3,15.1-17.4,24.7c-2,9.5-2,81,0,90.5
		c2.1,9.6,9,19.5,17.4,24.7l6.9,4.2l32,0.7c36.2,0.8,39,1.6,45.1,12.2c5.9,10.3,2.7,22.5-8.2,30c-4.5,3-5.7,3.1-37.3,3
		C501,4920.1,493.5,4919.5,486.6,4917.5z"/>
</g>
</svg>
